<svg width="30" height="30" viewBox="0 0 30 30" fill="none" xmlns="http://www.w3.org/2000/svg">
<path d="M6.99984 25.7831H10.4802C10.934 25.7831 11.385 25.8371 11.8249 25.945L15.5024 26.8387C16.3003 27.0331 17.1315 27.052 17.9378 26.8954L22.0038 26.1043C23.0779 25.8951 24.0659 25.3808 24.8403 24.6275L27.717 21.8291C28.5386 21.0313 28.5386 19.7368 27.717 18.9376C26.9774 18.2181 25.8061 18.1371 24.9693 18.7473L21.6166 21.1933C21.1365 21.5443 20.5523 21.7333 19.9514 21.7333H16.7138L18.7746 21.7332C19.9361 21.7332 20.877 20.818 20.877 19.6881V19.279C20.877 18.3409 20.2206 17.5228 19.2853 17.296L16.1046 16.5225C15.587 16.397 15.0569 16.3335 14.524 16.3335C13.2376 16.3335 10.909 17.3986 10.909 17.3986L6.99984 19.0334M1.6665 18.4669L1.6665 26.2002C1.6665 26.9469 1.6665 27.3203 1.81183 27.6055C1.93966 27.8564 2.14363 28.0604 2.39452 28.1882C2.67973 28.3335 3.0531 28.3335 3.79984 28.3335H4.8665C5.61324 28.3335 5.98661 28.3335 6.27182 28.1882C6.52271 28.0604 6.72668 27.8564 6.85451 27.6055C6.99984 27.3203 6.99984 26.9469 6.99984 26.2002V18.4669C6.99984 17.7201 6.99984 17.3467 6.85451 17.0615C6.72668 16.8107 6.52271 16.6067 6.27182 16.4788C5.98661 16.3335 5.61324 16.3335 4.8665 16.3335H3.79984C3.0531 16.3335 2.67973 16.3335 2.39452 16.4788C2.14363 16.6067 1.93966 16.8106 1.81183 17.0615C1.6665 17.3467 1.6665 17.7201 1.6665 18.4669ZM21.9217 3.78986C21.1259 2.12472 19.2913 1.24257 17.5071 2.09402C15.7229 2.94547 14.9628 4.96469 15.7098 6.73729C16.1714 7.8328 17.4942 9.96019 18.4373 11.4256C18.7858 11.967 18.96 12.2377 19.2145 12.3961C19.4328 12.5319 19.7061 12.6052 19.963 12.5967C20.2626 12.5868 20.5489 12.4394 21.1214 12.1448C22.6708 11.3473 24.88 10.1663 25.8276 9.44835C27.3608 8.28674 27.7406 6.15162 26.5927 4.52851C25.4448 2.90539 23.4434 2.74568 21.9217 3.78986Z" stroke="white" stroke-width="2" stroke-linecap="round" stroke-linejoin="round"/>
</svg>
