<svg width="14" height="14" viewBox="0 0 14 14" fill="none" xmlns="http://www.w3.org/2000/svg">
<path d="M6.9999 1.8999C8.6499 1.8999 8.8749 1.8999 9.5499 1.8999C10.1499 1.8999 10.4499 2.0499 10.6749 2.1249C10.9749 2.2749 11.1999 2.3499 11.4249 2.5749C11.6499 2.7999 11.7999 3.0249 11.8749 3.3249C11.9499 3.5499 12.0249 3.8499 12.0999 4.4499C12.0999 5.1249 12.0999 5.2749 12.0999 6.9999C12.0999 8.7249 12.0999 8.8749 12.0999 9.5499C12.0999 10.1499 11.9499 10.4499 11.8749 10.6749C11.7249 10.9749 11.6499 11.1999 11.4249 11.4249C11.1999 11.6499 10.9749 11.7999 10.6749 11.8749C10.4499 11.9499 10.1499 12.0249 9.5499 12.0999C8.8749 12.0999 8.7249 12.0999 6.9999 12.0999C5.2749 12.0999 5.1249 12.0999 4.4499 12.0999C3.8499 12.0999 3.5499 11.9499 3.3249 11.8749C3.0249 11.7249 2.7999 11.6499 2.5749 11.4249C2.3499 11.1999 2.1999 10.9749 2.1249 10.6749C2.0499 10.4499 1.9749 10.1499 1.8999 9.5499C1.8999 8.8749 1.8999 8.7249 1.8999 6.9999C1.8999 5.2749 1.8999 5.1249 1.8999 4.4499C1.8999 3.8499 2.0499 3.5499 2.1249 3.3249C2.2749 3.0249 2.3499 2.7999 2.5749 2.5749C2.7999 2.3499 3.0249 2.1999 3.3249 2.1249C3.5499 2.0499 3.8499 1.9749 4.4499 1.8999C5.1249 1.8999 5.3499 1.8999 6.9999 1.8999ZM6.9999 0.774902C5.2749 0.774902 5.1249 0.774902 4.4499 0.774902C3.7749 0.774902 3.3249 0.924903 2.9499 1.0749C2.5749 1.2249 2.1999 1.4499 1.8249 1.8249C1.4499 2.1999 1.2999 2.4999 1.0749 2.9499C0.924903 3.3249 0.849902 3.7749 0.774902 4.4499C0.774902 5.1249 0.774902 5.3499 0.774902 6.9999C0.774902 8.7249 0.774902 8.8749 0.774902 9.5499C0.774902 10.2249 0.924903 10.6749 1.0749 11.0499C1.2249 11.4249 1.4499 11.7999 1.8249 12.1749C2.1999 12.5499 2.4999 12.6999 2.9499 12.9249C3.3249 13.0749 3.7749 13.1499 4.4499 13.2249C5.1249 13.2249 5.3499 13.2249 6.9999 13.2249C8.6499 13.2249 8.8749 13.2249 9.5499 13.2249C10.2249 13.2249 10.6749 13.0749 11.0499 12.9249C11.4249 12.7749 11.7999 12.5499 12.1749 12.1749C12.5499 11.7999 12.6999 11.4999 12.9249 11.0499C13.0749 10.6749 13.1499 10.2249 13.2249 9.5499C13.2249 8.8749 13.2249 8.6499 13.2249 6.9999C13.2249 5.3499 13.2249 5.1249 13.2249 4.4499C13.2249 3.7749 13.0749 3.3249 12.9249 2.9499C12.7749 2.5749 12.5499 2.1999 12.1749 1.8249C11.7999 1.4499 11.4999 1.2999 11.0499 1.0749C10.6749 0.924903 10.2249 0.849902 9.5499 0.774902C8.8749 0.774902 8.7249 0.774902 6.9999 0.774902Z" fill="white"/>
<path d="M6.9999 3.7749C5.1999 3.7749 3.7749 5.1999 3.7749 6.9999C3.7749 8.7999 5.1999 10.2249 6.9999 10.2249C8.7999 10.2249 10.2249 8.7999 10.2249 6.9999C10.2249 5.1999 8.7999 3.7749 6.9999 3.7749ZM6.9999 9.0999C5.8749 9.0999 4.8999 8.1999 4.8999 6.9999C4.8999 5.8749 5.7999 4.8999 6.9999 4.8999C8.1249 4.8999 9.0999 5.7999 9.0999 6.9999C9.0999 8.1249 8.1249 9.0999 6.9999 9.0999Z" fill="white"/>
<path d="M10.2999 4.4499C10.7141 4.4499 11.0499 4.11412 11.0499 3.6999C11.0499 3.28569 10.7141 2.9499 10.2999 2.9499C9.88569 2.9499 9.5499 3.28569 9.5499 3.6999C9.5499 4.11412 9.88569 4.4499 10.2999 4.4499Z" fill="white"/>
</svg>
