<svg width="27" height="26" viewBox="0 0 27 26" fill="none" xmlns="http://www.w3.org/2000/svg">
<path d="M25.333 25H3.46634C2.7196 25 2.34624 25 2.06102 24.8547C1.81014 24.7268 1.60616 24.5229 1.47833 24.272C1.33301 23.9868 1.33301 23.6134 1.33301 22.8667V1M25.333 6.33333L18.0873 13.5791C17.8232 13.8431 17.6912 13.9751 17.539 14.0246C17.4051 14.0681 17.2609 14.0681 17.127 14.0246C16.9748 13.9751 16.8428 13.8431 16.5788 13.5791L14.0873 11.0876C13.8232 10.8236 13.6912 10.6916 13.539 10.6421C13.4051 10.5986 13.2609 10.5986 13.127 10.6421C12.9748 10.6916 12.8428 10.8236 12.5788 11.0876L6.66634 17M25.333 6.33333H19.9997M25.333 6.33333V11.6667" stroke="white" stroke-width="2" stroke-linecap="round" stroke-linejoin="round"/>
</svg>
